<svg width="24" height="24" fill="none" xmlns="http://www.w3.org/2000/svg"><path d="M1.16.035C.82.146.557.407.462.725c-.077.26-.077.289.001.558.062.212.176.33 5.1 5.257l5.037 5.04-5.204 5.2c-4.209 4.206-5.222 5.238-5.3 5.4-.173.363-.111.745.171 1.06.275.305.621.409 1 .301l.233-.066 5.25-5.248L12 12.98l5.25 5.247 5.25 5.248.233.066c.379.108.725.004 1-.301.282-.315.344-.697.171-1.06-.078-.162-1.091-1.194-5.3-5.4l-5.204-5.2 5.036-5.04c3.939-3.943 5.045-5.07 5.077-5.18.087-.296.092-.401.028-.621a1.09 1.09 0 0 0-.518-.631c-.214-.113-.658-.12-.863-.013-.077.04-2.394 2.325-5.15 5.079L12 10.18 6.99 5.174C4.234 2.42 1.919.137 1.844.099 1.688.022 1.309-.014 1.16.035" fill="#000" fill-rule="evenodd"/></svg>