<svg aria-hidden="true" style="position: absolute; width: 0; height: 0; overflow: hidden;" version="1.1" xmlns="http://www.w3.org/2000/svg" xmlns:xlink="http://www.w3.org/1999/xlink">
    <defs>
        <symbol id="icon-close" viewBox="0 0 32 32">
            <path d="M1.547 0.047c-0.453 0.148-0.804 0.496-0.931 0.92-0.103 0.347-0.103 0.385 0.001 0.744 0.083 0.283 0.235 0.44 6.8 7.009l6.716 6.72-6.939 6.933c-5.612 5.608-6.963 6.984-7.067 7.2-0.231 0.484-0.148 0.993 0.228 1.413 0.367 0.407 0.828 0.545 1.333 0.401l0.311-0.088 14-13.993 14 13.993 0.311 0.088c0.505 0.144 0.967 0.005 1.333-0.401 0.376-0.42 0.459-0.929 0.228-1.413-0.104-0.216-1.455-1.592-7.067-7.2l-6.939-6.933 6.715-6.72c5.252-5.257 6.727-6.76 6.769-6.907 0.116-0.395 0.123-0.535 0.037-0.828-0.117-0.365-0.363-0.66-0.683-0.838l-0.007-0.004c-0.285-0.151-0.877-0.16-1.151-0.017-0.103 0.053-3.192 3.1-6.867 6.772l-6.68 6.675-6.68-6.675c-3.675-3.672-6.761-6.716-6.861-6.767-0.208-0.103-0.713-0.151-0.912-0.085z"></path>
        </symbol>
        <symbol id="icon-arrow" viewBox="0 0 34 24">
            <path d="M20.327 3.673c-0.703-0.703-0.703-1.843 0-2.546s1.843-0.703 2.546 0l9.6 9.6c0.703 0.703 0.703 1.843 0 2.546l-9.6 9.6c-0.703 0.703-1.843 0.703-2.546 0s-0.703-1.843 0-2.546l6.527-6.527h-23.254c-0.994 0-1.8-0.806-1.8-1.8s0.806-1.8 1.8-1.8h23.254l-6.527-6.527z"></path>
        </symbol>
        <symbol id="icon-burger" viewBox="0 0 33 24">
            <path stroke-linejoin="miter" stroke-linecap="round" stroke-miterlimit="4" stroke-width="3.1304" d="M1.565 1.565h29.478"></path>
            <path stroke-linejoin="miter" stroke-linecap="round" stroke-miterlimit="4" stroke-width="3.1304" d="M8.087 12h22.957"></path>
            <path stroke-linejoin="miter" stroke-linecap="round" stroke-miterlimit="4" stroke-width="3.1304" d="M14.609 22.435h16.435"></path>
        </symbol>
        <symbol id="icon-linkedin" viewBox="0 0 24 24">
            <path d="M16 7c-1.933 0-3.684 0.785-4.95 2.050s-2.050 3.017-2.050 4.95v7c0 0.552 0.448 1 1 1h4c0.552 0 1-0.448 1-1v-7c0-0.276 0.111-0.525 0.293-0.707s0.431-0.293 0.707-0.293 0.525 0.111 0.707 0.293 0.293 0.431 0.293 0.707v7c0 0.552 0.448 1 1 1h4c0.552 0 1-0.448 1-1v-7c0-1.933-0.785-3.684-2.050-4.95s-3.017-2.050-4.95-2.050zM16 9c1.381 0 2.63 0.559 3.536 1.464s1.464 2.155 1.464 3.536v6h-2v-6c0-0.828-0.337-1.58-0.879-2.121s-1.293-0.879-2.121-0.879-1.58 0.337-2.121 0.879-0.879 1.293-0.879 2.121v6h-2v-6c0-1.381 0.559-2.63 1.464-3.536s2.155-1.464 3.536-1.464zM2 8c-0.552 0-1 0.448-1 1v12c0 0.552 0.448 1 1 1h4c0.552 0 1-0.448 1-1v-12c0-0.552-0.448-1-1-1zM3 10h2v10h-2zM7 4c0-0.828-0.337-1.58-0.879-2.121s-1.293-0.879-2.121-0.879-1.58 0.337-2.121 0.879-0.879 1.293-0.879 2.121 0.337 1.58 0.879 2.121 1.293 0.879 2.121 0.879 1.58-0.337 2.121-0.879 0.879-1.293 0.879-2.121zM5 4c0 0.276-0.111 0.525-0.293 0.707s-0.431 0.293-0.707 0.293-0.525-0.111-0.707-0.293-0.293-0.431-0.293-0.707 0.111-0.525 0.293-0.707 0.431-0.293 0.707-0.293 0.525 0.111 0.707 0.293 0.293 0.431 0.293 0.707z"></path>
        </symbol>
        <symbol id="icon-facebook" viewBox="0 0 24 24">
            <path d="M17 3v2h-2c-0.552 0-1.053 0.225-1.414 0.586s-0.586 0.862-0.586 1.414v3c0 0.552 0.448 1 1 1h2.719l-0.5 2h-2.219c-0.552 0-1 0.448-1 1v7h-2v-7c0-0.552-0.448-1-1-1h-2v-2h2c0.552 0 1-0.448 1-1v-3c0-1.105 0.447-2.103 1.172-2.828s1.723-1.172 2.828-1.172zM18 1h-3c-1.657 0-3.158 0.673-4.243 1.757s-1.757 2.586-1.757 4.243v2h-2c-0.552 0-1 0.448-1 1v4c0 0.552 0.448 1 1 1h2v7c0 0.552 0.448 1 1 1h4c0.552 0 1-0.448 1-1v-7h2c0.466 0 0.858-0.319 0.97-0.757l1-4c0.134-0.536-0.192-1.079-0.728-1.213-0.083-0.021-0.167-0.031-0.242-0.030h-3v-2h3c0.552 0 1-0.448 1-1v-4c0-0.552-0.448-1-1-1z"></path>
        </symbol>
        <symbol id="icon-brainstorm" viewBox="0 0 32 32">
            <path d="M19.017 10.914h-.535l.943-1.652a.258.258 0 0 0-.231-.373h-1.76a.258.258 0 0 0-.232.144l-1.67 3.128a.258.258 0 0 0 .231.373h.8l-.958 2.414a.258.258 0 0 0 .44.259l3.17-3.871a.258.258 0 0 0-.199-.422z"/>
            <path d="M26.14 4.744C24.732 2.982 21.073 0 16.295 0 13.1 0 10.061 1.336 7.26 3.969l-.014.014c-2.731 2.809-2.374 5.404-1.922 8.692l.084.615c.075.559-.414 1.421-.887 2.254-.711 1.252-1.445 2.547-.548 3.159 1.534 1.046 1.8 3.103 2.058 5.094.061.473.125.962.204 1.437.137.82.829 1.219 2.115 1.219.572 0 1.183-.071 1.774-.139.507-.059.985-.114 1.368-.114.214 0 .382.017.511.052 1.546.419 2.896 3.545 3.384 5.416a.442.442 0 0 0 .735.209l7.923-7.562a.444.444 0 0 0 .116-.456c-.7-2.189.754-4.325 2.037-6.211.56-.823 1.089-1.6 1.45-2.365 1.668-3.531.466-8.066-1.511-10.54zm-3.942 7.788h-3.124l-3.073 3.616a.68.68 0 0 1-.873.155.677.677 0 0 1-.287-.837l.772-2.285h-.208a.683.683 0 0 1-.681-.648h-2.325a2.778 2.778 0 0 1-.579-5.494l-.001-.06a3.752 3.752 0 0 1 6.988-1.899 2.778 2.778 0 0 1 2.938 1.935 2.777 2.777 0 1 1 .452 5.517z"/>
        </symbol>
        <symbol id="icon-analysis" viewBox="0 0 32 32">
            <path d="m18.785 12.008-.549 1.795c.49.157.849.638.849 1.208 0 .286-.091.548-.242.76l1.431 1.168a3.225 3.225 0 0 0 .629-1.929c-.001-1.424-.899-2.618-2.118-3.003z"/>
            <path d="M17.597 16.351c-.651-.006-1.177-.571-1.177-1.26s.525-1.253 1.177-1.258c.123-.001.24.018.352.054l.546-1.792a2.764 2.764 0 0 0-.897-.129c-1.608.033-2.891 1.434-2.891 3.124 0 1.692 1.282 3.095 2.891 3.128.962.021 1.825-.45 2.38-1.2l-1.425-1.167a1.168 1.168 0 0 1-.957.501z"/>
            <path d="M30.112 12.938C32 12.206 32 12.135 32 11.945v-1.48c0-.19 0-.27-1.889-.943l-.066-.024-.267-.632.028-.064c.804-1.82.748-1.874.614-2.006l-1.068-1.045a.29.29 0 0 0-.188-.074c-.062 0-.242 0-1.823.716l-.063.028-.65-.263-.026-.065c-.744-1.841-.822-1.841-1.006-1.841h-1.512c-.187 0-.27 0-.958 1.844l-.026.067-.648.265-.062-.026c-1.069-.451-1.694-.68-1.856-.68a.293.293 0 0 0-.188.073l-1.071 1.048c-.136.134-.192.19.652 1.972l.03.066-.266.631-.066.025c-.215.083-.4.157-.569.224-.063.025-.437.269-.672.416l-4.924-.27-1.694 8.118h-.001l-.033.005c-.409-.695-1.172-1.09-2.236-1.09h-.465c-.624.609-1.716 1.018-2.966 1.018s-2.342-.407-2.966-1.018h-.465c-1.641 0-2.58.927-2.58 2.472s-.05 5.773-.05 6.616-.101 1.721.626 1.721H11.5c.728 0 .626-.878.626-1.721l-.003-.616h19.852v-1.343H12.112l-.012-1.194 1.892.724 9.362-1.489.938-3.89h1.365c.19 0 .27 0 .958-1.845l.026-.066.649-.263.062.025c1.068.452 1.693.681 1.854.681a.292.292 0 0 0 .188-.072l1.071-1.05c.136-.135.191-.19-.654-1.97l-.03-.067.265-.629.066-.026zm-16.181-2.272 9.792.654-2.143 9.048-9.175-2.596 1.526-7.106zm-1.853 8.747c0-.277-.04-.526-.1-.763l.035-.006 7.766 2.218-3.547.502-4.153-1.352-.001-.599zm.005 1.147 1.071.358-1.067.16-.004-.517zm13.331-6.988.564-2.344-.567-.395-2.534 10.812-8.821 1.286-1.96-.717-.005-.554 1.996.716 8.247-1.106 2.543-10.741-2.27-.123a3.16 3.16 0 0 1 .063-.216 2.449 2.449 0 0 1 2.201-1.355c1.351 0 2.447 1.076 2.447 2.401 0 1.139-.815 2.093-1.904 2.336z"/>
            <path d="M1.616 11.892c-.009.058-.021.116-.028.175-.273 2.54 1.524 4.826 4.006 5.095 2.483.27 4.727-1.581 5.003-4.121a4.74 4.74 0 0 0-.023-1.15 7.63 7.63 0 0 0 .512-.012c.317-.04.569-.063.595-.412.005-.466-.008-.391-.001-.46.008-.403-.229-.357-.49-.384s-.582.012-.582.012-.754-5.069-5.443-4.241c-1.402.248-2.326.84-2.933 1.547 1.197-.595 2.609-.881 3.837-.712 1.171.162 2.09.705 2.682 1.569a4.39 4.39 0 0 0-1.32-.672 3.847 3.847 0 0 0-1.421-.481c-1.416-.202-3.085.246-4.32 1.094-.792 1.509-.562 3.153-.562 3.153l.487.002zm.806.265a2.88 2.88 0 0 1 .042-.263c1.894.003 5.353.009 7.265.001.059.341.074.694.034 1.054-.226 2.081-2.056 3.598-4.078 3.378-2.025-.219-3.487-2.09-3.262-4.171z"/>
        </symbol>
        <symbol id="icon-spreadsheet" viewBox="0 0 32 32">
            <path d="M30.804 1.708H1.195c-.66 0-1.196.537-1.196 1.195v26.193c0 .405.203.762.512.978v.188H.94c.082.018.167.029.254.029h29.609c.087 0 .172-.011.254-.029h.059v-.018c.507-.139.883-.599.883-1.149V2.902c0-.659-.536-1.196-1.196-1.196zM4.726 29.238H1.107a.168.168 0 0 1-.082-.142v-3.104h3.701v3.245zm0-4.27H1.025v-3.366h3.701v3.366zm0-4.39H1.025v-3.553h3.701v3.553zm0-4.578H1.025v-3.844h3.701V16zm0-4.868H1.025V7.374h3.701v3.758zm8.626 18.106H5.75v-3.245h7.601v3.245zm0-4.27H5.75v-3.366h7.601v3.366zm0-4.39H5.75v-3.553h7.601v3.553zm0-4.578H5.75v-3.844h7.601V16zm0-4.868H5.75V7.374h7.601v3.758zm0-4.783H5.75V2.733h7.601v3.616zm8.712 22.889h-7.688v-3.245h7.688v3.245zm0-4.27h-7.688v-3.366h7.688v3.366zm0-4.39h-7.688v-3.553h7.688v3.553zm0-4.578h-7.688v-3.844h7.688V16zm0-4.868h-7.688V7.374h7.688v3.758zm0-4.783h-7.688V2.733h7.688v3.616zm8.911 22.748a.168.168 0 0 1-.082.142h-7.804v-3.245h7.886v3.104zm0-4.129h-7.886v-3.366h7.886v3.366zm0-4.39h-7.886v-3.553h7.886v3.553zm0-4.578h-7.886v-3.844h7.886V16zm0-4.868h-7.886V7.374h7.886v3.758zm0-4.783h-7.886V2.733h7.715c.094 0 .171.077.171.171v3.445zm-9.693 3.834h-6.151V8.044h6.151v2.139zm0 4.834h-6.151v-2.139h6.151v2.139zm0 4.68h-6.151v-2.139h6.151v2.139zm0 4.634h-6.151v-2.139h6.151v2.139zm0 4.279h-6.151v-2.14h6.151v2.14z"/>
        </symbol>
        <symbol id="icon-sum" viewBox="0 0 32 32">
            <path d="M30.804 1.708H1.195c-.66 0-1.196.537-1.196 1.195v26.193c0 .405.203.762.512.978v.188H.94c.082.018.167.029.254.029h29.609c.087 0 .172-.011.254-.029h.059v-.018c.507-.139.883-.599.883-1.149V2.902c0-.659-.536-1.196-1.196-1.196zM4.726 29.238H1.107a.168.168 0 0 1-.082-.142v-3.104h3.701v3.245zm0-4.27H1.025v-3.366h3.701v3.366zm0-4.39H1.025v-3.553h3.701v3.553zm0-4.578H1.025v-3.844h3.701V16zm0-4.868H1.025V7.374h3.701v3.758zm8.626 18.106H5.75v-3.245h7.601v3.245zm0-4.27H5.75v-3.366h7.601v3.366zm0-4.39H5.75v-3.553h7.601v3.553zm0-4.578H5.75v-3.844h7.601V16zm0-4.868H5.75V7.374h7.601v3.758zm0-4.783H5.75V2.733h7.601v3.616zm8.712 22.889h-7.688v-3.245h7.688v3.245zm0-4.27h-7.688v-3.366h7.688v3.366zm0-4.39h-7.688v-3.553h7.688v3.553zm0-4.578h-7.688v-3.844h7.688V16zm0-4.868h-7.688V7.374h7.688v3.758zm0-4.783h-7.688V2.733h7.688v3.616zm8.911 22.748a.168.168 0 0 1-.082.142h-7.804v-3.245h7.886v3.104zm0-4.129h-7.886v-3.366h7.886v3.366zm0-4.39h-7.886v-3.553h7.886v3.553zm0-4.578h-7.886v-3.844h7.886V16zm0-4.868h-7.886V7.374h7.886v3.758zm0-4.783h-7.886V2.733h7.715c.094 0 .171.077.171.171v3.445zm-9.693 3.834h-6.151V8.044h6.151v2.139zm0 4.834h-6.151v-2.139h6.151v2.139zm0 4.68h-6.151v-2.139h6.151v2.139zm0 4.634h-6.151v-2.139h6.151v2.139zm0 4.279h-6.151v-2.14h6.151v2.14z"/>
        </symbol>
        <symbol id="icon-decrease" viewBox="0 0 32 32">
            <path d="M1.882 29.133c0 1.011.518 1.833 1.158 1.833h25.92c.64 0 1.158-.823 1.158-1.833 0-1.015-.518-1.837-1.158-1.837H3.04c-.64 0-1.158.823-1.158 1.837zM22.688 24.015c0 .71.687 1.291 1.536 1.291h2.302c.849 0 1.534-.582 1.534-1.291V17.54c0-.712-.685-1.291-1.534-1.291h-2.302c-.849 0-1.536.58-1.536 1.291v6.475zM13.344 24.017c0 .712.687 1.289 1.534 1.289h2.304c.847 0 1.534-.578 1.534-1.289v-8.433c0-.712-.687-1.289-1.534-1.289h-2.304c-.847 0-1.534.578-1.534 1.289v8.433zM3.881 23.966c0 .706.691 1.28 1.551 1.28h2.327c.858 0 1.551-.574 1.551-1.28V11.721c0-.706-.693-1.28-1.551-1.28H5.432c-.86 0-1.551.574-1.551 1.28v12.245zM28.736 13.969a1.324 1.324 0 0 0 1.327-1.267 1.314 1.314 0 0 0-1.284-1.353c-9.419-.333-18.387-3.962-24.61-9.963a1.346 1.346 0 0 0-1.884.023 1.299 1.299 0 0 0 .023 1.854C9.096 9.808 18.464 13.61 28.687 13.968c.017.002.034.002.049.002z"/>
        </symbol>
        <symbol id="icon-function" viewBox="0 0 32 32">
            <path d="M18.585 1.969c-.492-.369-1.169-.554-1.969-.554-.185 0-.369 0-.554.062-2.154.308-3.569 2.338-4.431 4.185a35.624 35.624 0 0 0-1.046 2.708c-.185.431-.308.862-.492 1.292 0 .062-.246.923-.308.923H7.57c-.308 0-.554.246-.554.554s.246.554.554.554h1.908L8.37 16.308c-.985 5.046-2.4 10.892-2.769 11.938s-.862 1.6-1.538 1.6c-.123 0-.246 0-.308-.062s-.123-.123-.123-.246c0-.062.062-.246.185-.431s.185-.431.185-.615c0-.431-.123-.738-.431-.985-.246-.246-.554-.369-.923-.369s-.677.123-.985.369c-.308.246-.431.615-.431 1.046 0 .615.246 1.108.738 1.538s1.108.615 1.908.615c1.292 0 2.523-.615 3.385-1.6.554-.615.923-1.354 1.292-2.154 1.108-2.4 1.662-5.046 2.277-7.569.615-2.585 1.231-5.169 1.785-7.815h2.154c.308 0 .554-.246.554-.554s-.246-.554-.554-.554h-1.908c1.046-4.062 2.277-6.831 2.523-7.262.431-.677.862-1.046 1.292-1.046.185 0 .308.062.369.123.062.123.062.185.062.246s-.062.185-.185.431a1.638 1.638 0 0 0-.185.738c0 .369.123.615.369.862s.554.369.923.369.677-.123.923-.369.369-.615.369-1.046c.062-.677-.185-1.169-.738-1.538zM28.369 14.277c.8 0 2.338-.615 2.338-2.708 0-2.031-1.477-2.154-1.908-2.154-.923 0-1.785.677-2.585 2.031-.8 1.415-1.662 2.892-1.662 2.892-.185-.985-.369-1.785-.431-2.154-.185-.862-1.169-2.708-3.2-2.708s-3.877 1.169-3.877 1.169a1.209 1.209 0 0 0-.554 1.046c0 .677.554 1.231 1.231 1.231.185 0 .369-.062.554-.123 0 0 1.538-.862 1.846 0 .123.246.185.554.246.862a88.647 88.647 0 0 1 1.046 4.308l-1.354 1.908s-1.477-.554-2.277-.554-2.338.615-2.338 2.708 1.477 2.154 1.908 2.154c.923 0 1.785-.677 2.585-2.031.8-1.415 1.662-2.892 1.662-2.892.246 1.231.492 2.277.615 2.708.492 1.415 1.662 2.277 3.262 2.277 0 0 1.6 0 3.508-1.046.431-.185.8-.615.8-1.169 0-.677-.554-1.231-1.231-1.231-.185 0-.369.062-.554.123 0 0-1.354.738-1.785.185-.308-.615-.615-1.477-.8-2.462-.185-.923-.431-1.969-.615-3.015l1.354-1.969c-.062.062 1.477.615 2.215.615z"/>
        </symbol>
        <symbol id="icon-storage" viewBox="0 0 32 32">
            <path d="M16 12.477c5.316 0 9.625-1.782 9.625-3.981V3.98c0-2.199-4.309-3.981-9.625-3.981S6.375 1.781 6.375 3.98v4.516c0 2.199 4.309 3.981 9.625 3.981z"/>
            <path d="M16 19.511c5.316 0 9.625-1.782 9.625-3.981v-4.516c0-.1-.009-.199-.027-.297-.367 2.06-4.524 3.684-9.599 3.684S6.768 12.777 6.4 10.717a1.736 1.736 0 0 0-.027.297v4.516c0 2.199 4.31 3.981 9.625 3.981z"/>
            <path d="M25.164 29.597h-5.995v-.026a.793.793 0 0 0-.792-.792h-1.584v-2.173c4.945-.167 8.833-1.879 8.833-3.967v-4.516c0-.1-.009-.199-.027-.297-.367 2.06-4.524 3.684-9.599 3.684s-9.231-1.624-9.599-3.684a1.736 1.736 0 0 0-.027.297v4.516c0 2.088 3.888 3.801 8.833 3.967v2.173h-1.585a.793.793 0 0 0-.792.792v.026H6.835a.793.793 0 0 0 0 1.584h5.995v.026c0 .437.355.792.792.792h4.754a.793.793 0 0 0 .792-.792v-.026h5.995a.793.793 0 0 0 0-1.584z"/>
        </symbol>
        <symbol id="icon-search" viewBox="0 0 32 32">
            <path d="m31.369 18.916-3.891-2.132a1.214 1.214 0 0 0-.906-.106 4.51 4.51 0 0 0-.04-2.837v-5.61c0-.595-.482-1.077-1.077-1.077H3.105c-.595 0-1.077.482-1.077 1.077v14.006H.491a.492.492 0 0 0-.492.492 2.12 2.12 0 0 0 2.117 2.117h17.107v-.915a.59.59 0 1 1 1.18 0v.915h.967v-.915a.59.59 0 1 1 1.18 0v.915h3.883a2.12 2.12 0 0 0 2.117-2.117.492.492 0 0 0-.492-.492h-1.527v-3.2l3.669 2.01a1.214 1.214 0 1 0 1.167-2.132zm-6.71 2.584H3.902V9.027h20.757v2.46a4.519 4.519 0 0 0-6.348 1.659 4.519 4.519 0 0 0 1.789 6.127 4.515 4.515 0 0 0 4.559-.132V21.5zm-.849-8.52c0 .269-.058.404-.165.404s-.173-.129-.171-.4c-.002-.275.067-.404.169-.404.111 0 .167.138.167.4zm-3.027 0c0 .269-.058.404-.165.404s-.173-.129-.171-.4a.98.98 0 0 1 .02-.221c.075-.053.152-.102.23-.148.057.056.086.178.086.365zm-1.179 3.964.003-.001c.085 0 .138.082.158.239a3.425 3.425 0 0 1-.161-.238zm4.888.566a1.133 1.133 0 0 1-.009-.163c-.002-.275.067-.404.169-.404.077 0 .128.069.151.198a3.07 3.07 0 0 1-.311.368zm.517-.693c-.012.023-.026.044-.039.066a.376.376 0 0 0-.315-.148c-.305 0-.451.271-.451.613a.882.882 0 0 0 .071.362 3.13 3.13 0 0 1-3.706.227h.237v-1.182h-.229l-.313.145.045.207.225-.107h.004v.917a3.094 3.094 0 0 1-.501-.413c.007-.052.012-.106.012-.164 0-.324-.124-.605-.44-.605a.465.465 0 0 0-.116.015 3.123 3.123 0 0 1 .182-3.177l.122-.17c.113-.146.238-.28.371-.401.006.326.141.591.441.591.302 0 .449-.251.449-.616 0-.19-.043-.364-.142-.477a3.125 3.125 0 0 1 2.526-.079c-.168.093-.249.308-.249.563.002.334.136.609.442.609.302 0 .449-.251.449-.616 0-.076-.007-.15-.022-.218.189.133.36.284.511.45v.365h.267v-.028c.228.333.388.706.476 1.097.027.12.048.278.048.278a3.104 3.104 0 0 1-.357 1.896z"/>
            <path d="M21.545 12.637h.004v.936h.267v-1.182h-.229l-.313.145.046.207zM22.554 12.637h.004v.936h.267v-1.182h-.229l-.313.145.045.207zM19.61 14.553c-.305 0-.451.271-.451.613.002.334.136.609.442.609.302 0 .449-.251.449-.616 0-.324-.124-.605-.44-.605zm-.001 1.013c-.107 0-.173-.129-.171-.4-.002-.275.067-.404.169-.404.111 0 .167.138.167.4 0 .269-.058.404-.165.404zM20.807 14.573h-.229l-.313.145.046.207.225-.107h.004v.936h.267zM21.619 15.775c.302 0 .449-.251.449-.616 0-.324-.124-.605-.44-.605-.305 0-.451.271-.451.613.002.334.136.609.442.609zm.006-1.013c.111 0 .167.138.167.4 0 .269-.058.404-.165.404s-.173-.129-.171-.4c-.002-.275.067-.404.169-.404zM22.554 14.818h.004v.936h.267v-1.182h-.229l-.313.145.045.207zM23.563 14.818h.004v.936h.267v-1.182h-.229l-.313.145.045.207zM24.646 15.775c.302 0 .449-.251.449-.616 0-.324-.124-.605-.44-.605-.305 0-.451.271-.451.613.002.334.136.609.442.609zm.006-1.013c.111 0 .167.138.167.4 0 .269-.058.404-.165.404s-.173-.129-.171-.4c-.002-.275.067-.404.169-.404zM21.619 17.956c.302 0 .449-.251.449-.616 0-.324-.124-.605-.44-.605-.305 0-.451.271-.451.613.002.334.136.609.442.609zm.006-1.013c.111 0 .167.138.167.4 0 .269-.058.404-.165.404s-.173-.129-.171-.4c-.002-.275.067-.404.169-.404zM22.554 17h.004v.936h.267v-1.182h-.229l-.313.145.045.207zM23.637 17.956c.302 0 .449-.251.449-.616 0-.324-.124-.605-.44-.605-.305 0-.451.271-.451.613.002.334.136.609.442.609zm.006-1.013c.111 0 .167.138.167.4 0 .269-.058.404-.165.404s-.173-.129-.171-.4c-.002-.275.067-.404.169-.404z"/>
        </symbol>
        <symbol id="icon-chart" viewBox="0 0 32 32">
            <path d="M30.75 22.818H7.667V3.43a1.25 1.25 0 0 0-2.5 0v19.388H1.25a1.25 1.25 0 0 0 0 2.5h3.917v3.251a1.25 1.25 0 0 0 2.5 0v-3.251H30.75a1.25 1.25 0 0 0 0-2.5z"/>
            <path d="M10.75 20.71a1.67 1.67 0 0 0 1.667-1.667c0-.38-.13-.73-.345-1.011l3.015-7.266 3.08 6.351a1.65 1.65 0 0 0-.232.845c0 .919.748 1.667 1.667 1.667a1.67 1.67 0 0 0 1.533-2.322l1.16-1.489c.09.015.182.025.276.025.086 0 .17-.009.253-.021l1.079 1.466a1.67 1.67 0 0 0 1.523 2.342 1.67 1.67 0 0 0 1.378-2.604l2.258-4.528a1.668 1.668 0 0 0 1.545-1.661c0-.919-.748-1.667-1.667-1.667a1.67 1.67 0 0 0-1.379 2.602l-2.259 4.53-.052.003-1.126-1.529a1.67 1.67 0 0 0-1.554-2.267 1.67 1.67 0 0 0-1.667 1.667c0 .204.039.398.106.579l-1.21 1.553a1.734 1.734 0 0 0-.178-.012L16.426 9.71c.199-.274.318-.611.318-.975 0-.919-.748-1.667-1.667-1.667s-1.667.748-1.667 1.667c0 .361.117.695.313.968l-3.191 7.69a1.67 1.67 0 0 0-1.45 1.651 1.67 1.67 0 0 0 1.667 1.667z"/>
        </symbol>
    </defs>
</svg>