<svg aria-hidden="true" style="position: absolute; width: 0; height: 0; overflow: hidden;" version="1.1" xmlns="http://www.w3.org/2000/svg" xmlns:xlink="http://www.w3.org/1999/xlink">
<defs>
<symbol id="icon-close" viewBox="0 0 32 32">
<path d="M1.547 0.047c-0.453 0.148-0.804 0.496-0.931 0.92-0.103 0.347-0.103 0.385 0.001 0.744 0.083 0.283 0.235 0.44 6.8 7.009l6.716 6.72-6.939 6.933c-5.612 5.608-6.963 6.984-7.067 7.2-0.231 0.484-0.148 0.993 0.228 1.413 0.367 0.407 0.828 0.545 1.333 0.401l0.311-0.088 14-13.993 14 13.993 0.311 0.088c0.505 0.144 0.967 0.005 1.333-0.401 0.376-0.42 0.459-0.929 0.228-1.413-0.104-0.216-1.455-1.592-7.067-7.2l-6.939-6.933 6.715-6.72c5.252-5.257 6.727-6.76 6.769-6.907 0.116-0.395 0.123-0.535 0.037-0.828-0.117-0.365-0.363-0.66-0.683-0.838l-0.007-0.004c-0.285-0.151-0.877-0.16-1.151-0.017-0.103 0.053-3.192 3.1-6.867 6.772l-6.68 6.675-6.68-6.675c-3.675-3.672-6.761-6.716-6.861-6.767-0.208-0.103-0.713-0.151-0.912-0.085z"></path>
</symbol>
<symbol id="icon-arrow" viewBox="0 0 34 24">
<path d="M20.327 3.673c-0.703-0.703-0.703-1.843 0-2.546s1.843-0.703 2.546 0l9.6 9.6c0.703 0.703 0.703 1.843 0 2.546l-9.6 9.6c-0.703 0.703-1.843 0.703-2.546 0s-0.703-1.843 0-2.546l6.527-6.527h-23.254c-0.994 0-1.8-0.806-1.8-1.8s0.806-1.8 1.8-1.8h23.254l-6.527-6.527z"></path>
</symbol>
<symbol id="icon-burger" viewBox="0 0 33 24">
<path stroke-linejoin="miter" stroke-linecap="round" stroke-miterlimit="4" stroke-width="3.1304" d="M1.565 1.565h29.478"></path>
<path stroke-linejoin="miter" stroke-linecap="round" stroke-miterlimit="4" stroke-width="3.1304" d="M8.087 12h22.957"></path>
<path stroke-linejoin="miter" stroke-linecap="round" stroke-miterlimit="4" stroke-width="3.1304" d="M14.609 22.435h16.435"></path>
</symbol>
<symbol id="icon-linkedin" viewBox="0 0 24 24">
<path d="M16 7c-1.933 0-3.684 0.785-4.95 2.050s-2.050 3.017-2.050 4.95v7c0 0.552 0.448 1 1 1h4c0.552 0 1-0.448 1-1v-7c0-0.276 0.111-0.525 0.293-0.707s0.431-0.293 0.707-0.293 0.525 0.111 0.707 0.293 0.293 0.431 0.293 0.707v7c0 0.552 0.448 1 1 1h4c0.552 0 1-0.448 1-1v-7c0-1.933-0.785-3.684-2.050-4.95s-3.017-2.050-4.95-2.050zM16 9c1.381 0 2.63 0.559 3.536 1.464s1.464 2.155 1.464 3.536v6h-2v-6c0-0.828-0.337-1.58-0.879-2.121s-1.293-0.879-2.121-0.879-1.58 0.337-2.121 0.879-0.879 1.293-0.879 2.121v6h-2v-6c0-1.381 0.559-2.63 1.464-3.536s2.155-1.464 3.536-1.464zM2 8c-0.552 0-1 0.448-1 1v12c0 0.552 0.448 1 1 1h4c0.552 0 1-0.448 1-1v-12c0-0.552-0.448-1-1-1zM3 10h2v10h-2zM7 4c0-0.828-0.337-1.58-0.879-2.121s-1.293-0.879-2.121-0.879-1.58 0.337-2.121 0.879-0.879 1.293-0.879 2.121 0.337 1.58 0.879 2.121 1.293 0.879 2.121 0.879 1.58-0.337 2.121-0.879 0.879-1.293 0.879-2.121zM5 4c0 0.276-0.111 0.525-0.293 0.707s-0.431 0.293-0.707 0.293-0.525-0.111-0.707-0.293-0.293-0.431-0.293-0.707 0.111-0.525 0.293-0.707 0.431-0.293 0.707-0.293 0.525 0.111 0.707 0.293 0.293 0.431 0.293 0.707z"></path>
</symbol>
<symbol id="icon-facebook" viewBox="0 0 24 24">
<path d="M17 3v2h-2c-0.552 0-1.053 0.225-1.414 0.586s-0.586 0.862-0.586 1.414v3c0 0.552 0.448 1 1 1h2.719l-0.5 2h-2.219c-0.552 0-1 0.448-1 1v7h-2v-7c0-0.552-0.448-1-1-1h-2v-2h2c0.552 0 1-0.448 1-1v-3c0-1.105 0.447-2.103 1.172-2.828s1.723-1.172 2.828-1.172zM18 1h-3c-1.657 0-3.158 0.673-4.243 1.757s-1.757 2.586-1.757 4.243v2h-2c-0.552 0-1 0.448-1 1v4c0 0.552 0.448 1 1 1h2v7c0 0.552 0.448 1 1 1h4c0.552 0 1-0.448 1-1v-7h2c0.466 0 0.858-0.319 0.97-0.757l1-4c0.134-0.536-0.192-1.079-0.728-1.213-0.083-0.021-0.167-0.031-0.242-0.030h-3v-2h3c0.552 0 1-0.448 1-1v-4c0-0.552-0.448-1-1-1z"></path>
</symbol>
</defs>
</svg>
